<svg xmlns="http://www.w3.org/2000/svg" xmlns:xlink="http://www.w3.org/1999/xlink" xmlns:fi="http://pattern.flaticon.com/" x="0" y="0" width="224" height="126" viewBox="0 0 922.3529411764706 518.8235294117648"><rect x="0px" y="0px" width="100%" height="100%" opacity="1" fill="#5fda64"/><defs><g transform="matrix(0.1718084067106247 0 0 0.1718084067106247 95.01704788208008 214.01704788208008)" id="L1_1"><g><circle cx="245" cy="320" r="67" fill="#0f7a4f"/><path d="m312.964 320.169c0 37.08-30.068 67.148-67.148 67.148-15.823 0-30.368-5.474-41.845-14.635 6.024 1.778 12.397 2.727 19 2.727 37.08 0 67.138-30.068 67.138-67.148 0-21.258-9.879-40.217-25.293-52.514 27.83 8.192 48.148 33.935 48.148 64.422z" fill="#0c6842"/></g><g><circle cx="349" cy="159" r="67" fill="#158f5e"/><path d="m416.544 159.74c0 37.081-30.068 67.148-67.148 67.148-5.364 0-10.579-.629-15.573-1.818 29.568-7.032 51.565-33.614 51.565-65.33 0-31.726-21.997-58.308-51.565-65.33 4.995-1.189 10.209-1.818 15.573-1.818 37.08 0 67.148 30.058 67.148 67.148z" fill="#0f7a4f"/></g><g><circle cx="437" cy="251" r="67" fill="#158f5e"/><path d="m504.5 251.203c0 37.081-30.068 67.148-67.148 67.148-6.104 0-12.017-.819-17.641-2.347 32.905-4.335 58.298-32.485 58.298-66.569 0-30.977-20.978-57.059-49.507-64.801 2.897-.379 5.854-.579 8.851-.579 37.079-.001 67.147 30.057 67.147 67.148z" fill="#0f7a4f"/></g><g><path d="m394.251 370.492c-28.949 0-52.417-23.468-52.417-52.417v-114.64c0-28.949 23.468-52.417 52.417-52.417 28.949 0 52.417 23.468 52.417 52.417v114.64c0 28.949-23.468 52.417-52.417 52.417z" fill="#d2f0a2"/><path d="m446.672 203.434v114.638c0 28.949-23.475 52.424-52.424 52.424-4.445 0-8.761-.549-12.876-1.598 22.726-5.734 39.548-26.322 39.548-50.826v-114.638c0-14.475-5.864-27.581-15.354-37.06-6.573-6.573-14.884-11.408-24.194-13.755 4.116-1.049 8.431-1.598 12.876-1.598 14.475 0 27.581 5.864 37.07 15.354 9.49 9.478 15.354 22.584 15.354 37.059z" fill="#bcea73"/></g><g><path d="m127.262 239.334c-28.949 0-52.417-23.468-52.417-52.417v-73.377c0-28.949 23.468-52.417 52.417-52.417 28.949 0 52.417 23.468 52.417 52.417v73.377c0 28.949-23.468 52.417-52.417 52.417z" fill="#d2f0a2"/><path d="m179.677 113.539v73.382c0 28.949-23.465 52.414-52.414 52.414-4.955 0-9.76-.689-14.305-1.978 21.997-6.223 38.109-26.442 38.109-50.436v-73.382c0-14.475-5.864-27.58-15.354-37.061-6.233-6.243-14.035-10.908-22.756-13.376 4.545-1.289 9.35-1.978 14.305-1.978 14.475 0 27.581 5.864 37.06 15.353 9.491 9.482 15.355 22.588 15.355 37.062z" fill="#bcea73"/></g><g><circle cx="200" cy="256" r="79" fill="#1ca56f"/><path d="m280.329 256.277c0 43.953-35.632 79.585-79.585 79.585-12.617 0-24.544-2.937-35.142-8.171 37.01-6.833 65.051-39.268 65.051-78.256 0-31.337-18.111-58.438-44.433-71.414 4.705-.869 9.56-1.319 14.524-1.319 43.953 0 79.585 35.632 79.585 79.575z" fill="#158f5e"/></g><g><path d="m349.391 273.296c0 92.232-23.664 90.587-52.854 90.587s-52.854 1.645-52.854-90.587 29.826-196.291 52.854-196.291 52.854 104.059 52.854 196.291z" fill="#a3e440"/><path d="m349.391 273.296c0 92.232-23.664 90.587-52.854 90.587s-52.854 1.645-52.854-90.587 29.826-196.291 52.854-196.291 52.854 104.059 52.854 196.291z" fill="#a3e440"/><path d="m349.386 273.294c0 92.237-23.658 90.587-52.849 90.587-4.755 0-9.371.046-13.759-.286 22.512-1.673 39.09-13.118 39.09-90.301 0-74.513-19.476-156.737-39.09-185.585 4.663-6.863 9.337-10.701 13.759-10.701 23.028.001 52.849 104.061 52.849 196.286z" fill="#99d53b"/></g><g><path d="m8.03 340.598c0 71.04 32.021 69.773 71.52 69.773s71.52 1.267 71.52-69.773-40.359-151.19-71.52-151.19-71.52 80.15-71.52 151.19z" fill="#a3e440"/><path d="m8.03 340.598c0 71.04 32.021 69.773 71.52 69.773s71.52 1.267 71.52-69.773-40.359-151.19-71.52-151.19-71.52 80.15-71.52 151.19z" fill="#99d53b"/><path d="m151.067 340.597c0 71.044-32.016 69.775-71.514 69.775-5.134 0-10.129.02-14.954-.1 32.315-.789 56.56-7.861 56.56-69.676 0-60.036-28.819-126.575-56.56-145.745 5.085-3.526 10.129-5.444 14.954-5.444 31.157.001 71.514 80.146 71.514 151.19z" fill="#8dc637"/></g><g><path d="m219.269 343.268c0 52.499-23.664 51.563-52.854 51.563s-52.854.937-52.854-51.563 29.826-111.731 52.854-111.731 52.854 59.232 52.854 111.731z" fill="#a3e440"/><path d="m219.269 343.268c0 52.499-23.664 51.563-52.854 51.563s-52.854.937-52.854-51.563 29.826-111.731 52.854-111.731 52.854 59.232 52.854 111.731z" fill="#a3e440"/><path d="m219.264 343.264c0 52.504-23.655 51.565-52.854 51.565-5.444 0-10.689.03-15.633-.26 21.557-1.249 37.22-8.591 37.22-51.305 0-41.066-18.25-86.248-37.22-103.989 5.274-4.935 10.619-7.742 15.633-7.742 23.036.001 52.854 59.237 52.854 111.731z" fill="#99d53b"/></g><g><path d="m500.971 368.843c0 37.837-17.055 37.162-38.093 37.162s-38.093.675-38.093-37.162 21.496-80.526 38.093-80.526 38.093 42.689 38.093 80.526z" fill="#a3e440"/><path d="m500.971 368.843c0 37.837-17.055 37.162-38.093 37.162s-38.093.675-38.093-37.162 21.496-80.526 38.093-80.526 38.093 42.689 38.093 80.526z" fill="#a3e440"/><path d="m500.974 368.847c0 37.83-17.062 37.16-38.099 37.16-4.475 0-8.771.03-12.756-.29 14.764-1.169 25.323-7.092 25.323-36.871 0-28.52-12.207-59.786-25.323-73.472 4.275-4.475 8.661-7.063 12.756-7.063 16.602.002 38.099 42.696 38.099 80.536z" fill="#99d53b"/></g><path d="m503.971 440.245h-33.592v-26.782c8.846-.175 17.114-1.099 24.07-5.932 9.566-6.646 14.022-18.94 14.022-38.688 0-21.953-7.214-47.54-17.776-65.452 13.75-14.023 21.305-32.443 21.305-52.193 0-36.899-27.404-68.559-63.822-73.858-5.356-11.023-13.998-20.158-24.639-26.147-4.299-37.748-36.003-66.103-74.147-66.103-9.892 0-19.453 1.907-28.478 5.643-7.75-14.234-15.807-21.229-24.376-21.229-8.688 0-16.728 7.079-24.576 21.642-6.235 11.568-12.361 27.969-17.718 47.426-3.683 13.381-6.873 27.755-9.514 42.54-13.291-7.815-28.314-11.914-43.987-11.914-4.594 0-9.125.363-13.563 1.062v-56.72c0-25.125-15.864-47.764-39.477-56.333-3.893-1.413-8.195.598-9.609 4.491-1.413 3.894.598 8.195 4.492 9.608 17.701 6.425 29.594 23.396 29.594 42.233v60.487c-14.502 5.038-27.418 13.823-37.417 25.413v-12.249l14.413-14.413c2.929-2.93 2.929-7.678 0-10.607-2.929-2.928-7.678-2.928-10.606 0l-3.807 3.807v-45.71c0-4.143-3.358-7.5-7.5-7.5s-7.5 3.357-7.5 7.5v11.215l-7.564-7.564c-2.929-2.928-7.678-2.928-10.606 0-2.929 2.93-2.929 7.678 0 10.607l18.171 18.171v58.161c-10.938-15.765-23.801-27.37-37.417-28.789v-68.528c0-18.772 11.836-35.726 29.454-42.185 3.889-1.426 5.885-5.734 4.459-9.624-1.426-3.889-5.733-5.881-9.624-4.46-23.5 8.617-39.29 31.229-39.29 56.269v71.168c-14.469 6.493-29.263 24.069-41.992 50.39-15.545 32.139-24.824 71.579-24.824 105.5 0 34.729 7.468 56.094 23.501 67.233 13.16 9.144 30.003 9.969 48.019 10.035v22.379h-64.55c-4.142 0-7.5 3.357-7.5 7.5s3.358 7.5 7.5 7.5h496.471c4.143 0 7.5-3.357 7.5-7.5s-3.358-7.5-7.5-7.5zm-361.479-38.979c5.225.787 10.74.995 16.422 1.047v37.933h-24.153v-32.178c2.756-1.883 5.341-4.128 7.731-6.802zm31.423 1.048c6.747-.059 13.259-.336 19.327-1.55v39.481h-19.327zm78.954-44.971c7.1 8.667 15.737 11.979 24.843 13.249-9.438 6.003-20.389 9.223-31.897 9.223-8.139 0-15.965-1.602-23.325-4.742 2.884-8.371 4.279-18.874 4.279-31.804 0-1.272-.029-2.558-.062-3.844 5.193-1.619 10.198-3.731 14.988-6.29 2.677 10.419 6.37 18.343 11.174 24.208zm-44.308 37.219c2.528-1.756 4.776-3.836 6.762-6.248 8.924 4.009 18.405 6.184 28.264 6.468v45.463h-35.344zm50.025-.845c11.018-1.881 21.369-6.189 30.451-12.677v59.205h-30.451zm45.451-22.361c5.848-.09 11.683-.459 17.24-1.923v70.812h-17.24zm48.609-9.661v78.55h-16.368v-78.777c1.353-1.221 2.666-2.585 3.928-4.125 1.49-1.819 2.872-3.84 4.152-6.067 2.416 3.635 5.183 7.429 8.288 10.419zm15 10.077c5.922 2.932 12.365 4.903 19.105 5.747v62.726h-19.105zm34.105 5.743c5.385-.676 10.639-2.077 15.627-4.164.65 17.123 5.116 28.057 13.93 34.18 6.956 4.833 15.229 5.785 24.07 5.948v26.765h-53.628v-62.729zm84.14 17.698c-3.608 2.506-9.064 3.123-15.512 3.26v-13.592c.139-.12.279-.239.411-.371l11.909-11.909c2.929-2.93 2.929-7.678 0-10.607-2.93-2.928-7.678-2.928-10.607 0l-1.713 1.713v-21.404c0-4.143-3.357-7.5-7.5-7.5s-7.5 3.357-7.5 7.5v56.172c-6.456-.137-11.903-.753-15.512-3.261-5.102-3.545-7.582-12.17-7.582-26.37 0-16.418 4.514-35.553 12.074-51.187 7.695-15.91 15.443-21.839 18.52-21.839s10.824 5.929 18.519 21.839c7.561 15.634 12.074 34.769 12.074 51.187 0 14.199-2.48 22.824-7.581 26.369zm11.109-144.015c0 14.921-5.402 28.891-15.276 39.842-5.877-6.376-12.308-10.223-18.845-10.223-2.939 0-5.856.777-8.711 2.211v-79.593c0-3.304-.28-6.542-.797-9.702 25.349 7.074 43.629 30.521 43.629 57.465zm-146.668-58.237c5.366-19.366 23.796-34.443 43.919-34.443 24.768 0 44.917 20.149 44.917 44.917v93.621c-10.632 14.832-18.742 37.656-21.148 59.146-.036.021-.073.038-.108.06-4.952 3.076-10.443 5.113-16.161 6.077v-43.99l14.413-14.413c2.929-2.93 2.929-7.678 0-10.607-2.93-2.928-7.678-2.928-10.607 0l-3.806 3.806v-45.709c0-4.143-3.357-7.5-7.5-7.5s-7.5 3.357-7.5 7.5v11.215l-7.563-7.564c-2.929-2.929-7.678-2.93-10.606-.001-2.93 2.929-2.93 7.678-.001 10.606l18.171 18.172v78.507c-16.156-2.719-29.769-14.093-35.102-30.006-.013-.039-.031-.074-.044-.113 3.6-14.51 5.286-33.761 5.286-58.947 0-25.4-2.326-53.253-6.56-80.334zm-53.795-108.456c1.75 0 10.496 6.29 21.313 37.064 1.373 3.907 5.65 5.963 9.563 4.588 3.907-1.373 5.962-5.654 4.588-9.563-1.552-4.414-3.113-8.501-4.684-12.286 7.005-2.798 14.414-4.218 22.075-4.218 27.736 0 51.214 18.755 57.805 44.852-4.172-.923-8.5-1.424-12.946-1.424-19.482 0-37.327 9.513-48.389 24.607-1.132-5.522-2.334-10.973-3.621-16.308-.972-4.026-5.022-6.505-9.05-5.532-4.026.972-6.503 5.023-5.532 9.05 9.045 37.498 14.232 80.493 14.232 117.96 0 39.243-4.347 63.625-13.29 74.541-5.753 7.023-13.082 8.297-24.564 8.508v-38.393l24.331-24.331c2.929-2.93 2.929-7.678 0-10.607-2.93-2.928-7.678-2.928-10.607 0l-13.724 13.724v-62.506c0-4.143-3.357-7.5-7.5-7.5s-7.5 3.357-7.5 7.5v15.679l-10.667-10.667c-2.93-2.928-7.678-2.928-10.607 0-2.929 2.93-2.929 7.678 0 10.607l21.251 21.251c.008.008.016.014.023.021v85.222c-11.482-.211-18.812-1.486-24.564-8.508-8.943-10.916-13.29-35.298-13.29-74.541 0-42.009 6.551-90.885 17.522-130.742 13.136-47.719 25.481-58.048 27.832-58.048zm-95.795 99.693c14.958 0 29.2 4.506 41.347 13.04-3.808 25.666-5.906 51.959-5.906 76.058 0 17.487.815 32.107 2.516 44.274-4.159 2.584-8.548 4.72-13.122 6.397-2.417-20.204-8.44-41.091-17.335-59.491v-18.184l15.806-15.806c2.929-2.929 2.929-7.677 0-10.606-2.929-2.928-7.678-2.929-10.606.001l-5.199 5.199v-8.658c0-4.143-3.358-7.5-7.5-7.5s-7.5 3.357-7.5 7.5v23.918c-8.732-10.562-17.992-16.303-26.827-16.303-10.617 0-20.524 7.783-29.012 19.038-1.517-3.467-3.128-6.915-4.822-10.311 10.019-29.05 37.407-48.566 68.16-48.566zm-168.152 211.315c-7.324-5.089-17.06-16.317-17.06-54.915 0-31.77 8.72-68.768 23.327-98.97 13.138-27.166 29.111-44.72 40.694-44.72 12.109 0 32.472 21.205 48.032 61.73-4.703 8.788-8.67 18.302-11.693 27.338-1.314 3.928.805 8.178 4.733 9.491 3.928 1.318 8.178-.805 9.492-4.733 10.682-31.932 27.159-51.697 36.299-51.697 6.195 0 17.697 9.996 28.311 31.943 10.672 22.067 17.043 49.091 17.043 72.288 0 20.725-3.849 33.474-11.767 38.975-6.213 4.316-15.379 4.96-26.087 5.065v-22.935l24.331-24.331c2.929-2.93 2.929-7.678 0-10.607-2.929-2.928-7.678-2.928-10.606 0l-13.725 13.725v-36.718c0-4.143-3.358-7.5-7.5-7.5s-7.5 3.357-7.5 7.5v80.872c-10.71-.098-19.874-.753-26.087-5.07-7.918-5.501-11.767-18.25-11.767-38.975 0-6.063.424-12.417 1.261-18.886.531-4.107-2.368-7.868-6.476-8.4-4.109-.525-7.869 2.368-8.4 6.477-.919 7.104-1.385 14.105-1.385 20.81 0 26.364 5.786 42.663 18.208 51.294.609.423 1.231.813 1.858 1.191-9.549 6.412-22.948 7.042-39.076 7.108v-78.313l11.516-11.516c2.929-2.93 2.929-7.678 0-10.607-2.929-2.928-7.678-2.928-10.606 0l-.91.91v-20.647c0-4.143-3.358-7.5-7.5-7.5s-7.5 3.357-7.5 7.5v64.157l-9.443-9.443c-2.929-2.928-7.678-2.928-10.606 0-2.929 2.93-2.929 7.678 0 10.607l18.99 18.99c.331.331.688.619 1.06.875v34.989c-16.075-.064-29.908-.717-39.461-7.352zm54.46 22.349c11.577-.048 22.736-.411 32.711-3.097v25.48h-32.711z"/></g><g transform="matrix(0.11697399616241455 0 0 0.11697399616241455 102.04393768310547 -9.956692673922475)" id="L1_3"><g><path d="m264.316 504.683h-17.45c-4.886 0-8.847-3.961-8.847-8.847v-125.244h35.144v125.244c0 4.886-3.961 8.847-8.847 8.847z" fill="#97da7b"/><g><path d="m214.916 197.739h94.323l76.963-40.47c.8-5.86 1.22-11.85 1.22-17.94 0-72.81-59.02-131.83-131.83-131.83s-131.83 59.02-131.83 131.83c0 6.06.42 12.02 1.21 17.86z" fill="#f9f7f8"/><path d="m387.421 139.329c0-.732-.016-1.461-.028-2.191-11.168.679-21.903 2.985-31.972 6.682-9.168 3.366-19.384 1.197-26.766-5.197-20.922-18.121-46.28-27.91-73.064-27.91-9.344 0-21.463 3.711-33.371 8.591-15.706 6.436-30.758-10.521-22.642-25.428 18.917-34.743 48.365-76.619 82.692-83.674-8.616-1.771-17.539-2.703-26.68-2.703-72.81 0-131.83 59.02-131.83 131.83 0 5.774.392 11.454 1.112 17.03l15.023 26.021c5.003-2.412 8.178-3.682 8.178-3.682h225.248l13.03-21.439c-.05.004-.101.005-.151.01.801-5.86 1.221-11.85 1.221-17.94z" fill="#efedef"/><circle cx="394" cy="250" r="93" fill="#f9f7f8"/><circle cx="116" cy="250" r="93" fill="#f9f7f8"/><g fill="#efedef"><path d="m69.212 250.199c0-43.566 29.878-80.155 70.254-90.411-7.368-1.872-15.095-2.869-23.045-2.869-51.517 0-93.279 41.763-93.279 93.28s41.762 93.279 93.279 93.279c7.95 0 15.667-.998 23.035-2.87-40.376-10.255-70.244-46.843-70.244-90.409z"/><path d="m158.122 166.744c-15.715 24.08-24.233 53.278-24.233 83.908 0 30.339 8.357 59.273 23.788 83.221 30.821-15.226 52.022-46.972 52.022-83.675.001-36.526-20.997-68.143-51.577-83.454z"/><path d="m301.062 250.199c0 36.829 21.346 68.668 52.34 83.833 15.496-23.978 23.891-52.973 23.891-83.379 0-30.697-8.554-59.956-24.335-84.066-30.753 15.249-51.896 46.959-51.896 83.612z"/></g><ellipse cx="255px" cy="250px" rx="101px" ry="119px" fill="#f9f7f8"/><path d="m283.631 393.559v7.94c0 5.777-4.683 10.46-10.46 10.46h-35.15c-5.782 0-10.47-4.688-10.47-10.47v-7.93h-18.69c-26.52 0-52.23-9.23-72.7-26.1l-12.27-10.12c-3.91-3.22-8.82-4.98-13.89-4.98h-29.078c-1.709 0-2.614-2.022-1.474-3.296l8.122-9.084c9.06-10.13 22.01-15.92 35.61-15.92h23.96c6.89 0 12.31-5.83 11.88-12.71-.89-14.3-5.17-28.57-11.94-42.82-1.95-4.09 2.63-8.27 6.51-5.93 18.07 10.9 35.12 32.72 51.6 55.89 5.8 8.16 13.4 14.66 22.04 19.13 8.65 4.46 18.35 6.89 28.36 6.89 20.02 0 38.8-9.71 50.4-26.02 16.48-23.17 33.53-44.99 51.6-55.89 3.88-2.34 8.46 1.84 6.51 5.93-6.77 14.25-11.05 28.52-11.94 42.82-.43 6.88 4.99 12.71 11.88 12.71h23.96c13.6 0 26.55 5.79 35.61 15.92l7.283 8.145c1.464 1.637.302 4.235-1.895 4.235h-27.818c-5.07 0-9.98 1.76-13.89 4.98l-12.27 10.12c-20.47 16.87-46.18 26.1-72.7 26.1z" fill="#80d261" id="XMLID_757_"/><path d="m258.719 399.388c-5.984 0-10.839-4.979-10.839-11.127 0-4.665-3.782-8.446-8.446-8.446h-10.902c-27.455 0-54.071-9.819-75.262-27.765l-12.702-10.765c-4.048-3.425-9.131-5.297-14.38-5.297h-34.577c-1.415 1.246-2.769 2.571-4.04 3.992l-8.162 9.128c-1.124 1.257-.232 3.252 1.455 3.252h29.137c5.07 0 9.98 1.76 13.89 4.98l12.27 10.12c20.47 16.87 46.18 26.1 72.7 26.1h16.342c1.297 0 2.348 1.051 2.348 2.348v5.592c0 5.777 4.683 10.46 10.46 10.46h35.15c5.782 0 10.47-4.688 10.47-10.47v-2.101h-24.912z" fill="#68ca44"/></g></g><g><path d="m496.538 251.616c0-31.239-14.016-60.354-38.454-79.878-3.239-2.587-7.957-2.059-10.541 1.178-2.586 3.236-2.059 7.956 1.178 10.541 20.856 16.662 32.817 41.505 32.817 68.159 0 35.602-21.84 67.72-54.668 80.925-10.31-10.191-24.287-15.982-38.867-15.982h-23.96c-1.649 0-2.709-.865-3.193-1.382-.495-.526-1.311-1.664-1.204-3.362.795-12.737 4.47-25.841 11.233-40.061 2.31-4.854 1.176-10.548-2.82-14.168-3.985-3.611-9.748-4.177-14.339-1.408-19.41 11.709-37.347 34.776-53.838 57.96-10.186 14.318-26.742 22.867-44.29 22.867-9.121 0-18.171-2.327-26.174-6.729-3.629-1.996-8.189-.672-10.187 2.956-1.997 3.63-.673 8.19 2.956 10.187 10.212 5.617 21.763 8.587 33.404 8.587 22.394 0 43.52-10.906 56.513-29.173 13.01-18.288 26.852-36.427 41.018-47.896-4.941 12.409-7.718 24.247-8.447 35.943-.335 5.355 1.576 10.665 5.242 14.568 3.649 3.883 8.798 6.11 14.126 6.11h23.96c11.391 0 22.281 4.844 29.909 13.296h-16.732c-6.79 0-13.415 2.379-18.656 6.698l-12.276 10.118c-19.079 15.726-43.203 24.387-67.929 24.387h-11.189v-.722c0-4.143-3.357-7.5-7.5-7.5s-7.5 3.357-7.5 7.5v16.16c0 1.636-1.33 2.966-2.965 2.966h-35.145c-1.635 0-2.966-1.33-2.966-2.966v-16.16c0-4.143-3.358-7.5-7.5-7.5s-7.5 3.357-7.5 7.5v.722h-11.189c-24.725 0-48.85-8.661-67.93-24.387l-12.275-10.118c-5.24-4.319-11.866-6.698-18.656-6.698h-16.733c7.628-8.451 18.519-13.296 29.909-13.296h23.96c5.328 0 10.476-2.228 14.125-6.11 3.667-3.902 5.578-9.212 5.244-14.568-.73-11.693-3.506-23.53-8.446-35.938 13.598 11.016 26.704 28 38.062 43.763 2.422 3.361 7.109 4.125 10.469 1.701 3.361-2.421 4.122-7.108 1.701-10.469-14.554-20.201-31.975-42.386-50.832-53.761-4.59-2.768-10.353-2.201-14.337 1.408-3.997 3.62-5.13 9.314-2.821 14.169 6.764 14.22 10.439 27.324 11.234 40.061.106 1.697-.709 2.836-1.205 3.362-.485.517-1.544 1.382-3.193 1.382h-23.96c-14.441 0-28.288 5.687-38.568 15.697-32.425-13.376-53.967-45.329-53.967-80.64 0-24.526 10.419-48.058 28.585-64.56 3.066-2.785 3.293-7.529.508-10.595-2.785-3.067-7.528-3.295-10.594-.509-21.289 19.34-33.499 46.918-33.499 75.663 0 39.567 23.089 75.524 58.332 92.308l-3.069 3.43c-1.972 2.204-2.465 5.362-1.257 8.063 1.207 2.7 3.889 4.438 6.847 4.438h33.506c3.317 0 6.555 1.162 9.115 3.272l12.276 10.118c21.76 17.936 49.272 27.813 77.47 27.813h11.189v.438c0 7.227 4.299 13.455 10.466 16.304v86.883c0 4.143 3.358 7.5 7.5 7.5s7.5-3.357 7.5-7.5v-85.221h20.144v85.221c0 4.143 3.357 7.5 7.5 7.5s7.5-3.357 7.5-7.5v-86.881c6.167-2.849 10.465-9.077 10.465-16.304v-.438h11.189c28.197 0 55.71-9.877 77.47-27.813l12.275-10.117c2.562-2.111 5.799-3.273 9.116-3.273h33.506c2.958 0 5.64-1.738 6.847-4.438s.715-5.857-1.257-8.063l-2.77-3.096c35.65-16.636 59.032-52.771 59.032-92.642z"/><path d="m81.193 171.778c.968 0 1.953-.188 2.902-.588 12.678-5.325 26.343-7.563 40.317-6.525.368.027 8.386.956 11.895 1.712.532.114 1.063.17 1.586.17 3.458 0 6.567-2.406 7.325-5.923.872-4.049-1.704-8.039-5.753-8.911-2.54-.547-5.112-.975-7.697-1.325-.327-3.69-.509-7.389-.509-11.056 0-68.557 55.775-124.332 124.332-124.332s124.332 55.775 124.332 124.332c0 3.708-.185 7.449-.52 11.181-.234.034-.469.062-.703.098-3.243.498-6.493 1.16-9.661 1.968-4.014 1.023-6.438 5.106-5.415 9.12.864 3.393 3.915 5.649 7.262 5.649.613 0 1.237-.076 1.858-.234 2.699-.688 5.469-1.252 8.234-1.677 1.441-.222 3.993-.519 5.453-.668-.001-.003 5.46-.349 7.909-.349 9.8 0 19.428 1.618 28.616 4.809 3.91 1.36 8.186-.713 9.545-4.625 1.358-3.912-.712-8.186-4.625-9.545-10.706-3.718-21.916-5.614-33.32-5.639.243-3.369.366-6.741.366-10.088.001-76.828-62.503-139.332-139.331-139.332s-139.332 62.504-139.332 139.332c0 3.35.123 6.724.367 10.095-13.278.153-26.172 2.821-38.342 7.936-3.819 1.604-5.614 6.001-4.009 9.819 1.206 2.87 3.988 4.596 6.918 4.596z"/><path d="m356.138 164.618c-1.961-3.649-6.51-5.017-10.157-3.052-3.349 1.801-6.588 3.826-9.723 6.004-5.889-8.136-13.024-15.392-21.271-21.537-17.266-12.867-37.805-19.668-59.396-19.668s-42.129 6.801-59.396 19.668c-8.084 6.024-15.095 13.118-20.917 21.059-1.148-.784-2.308-1.552-3.484-2.284-3.516-2.19-8.142-1.115-10.332 2.401s-1.115 8.141 2.401 10.331c1.18.734 2.341 1.509 3.49 2.303-2.668 5.125-4.914 10.498-6.678 16.098-1.245 3.95.949 8.162 4.9 9.406 3.952 1.245 8.163-.949 9.407-4.9 11.132-35.338 43.526-59.081 80.608-59.081 37.083 0 69.477 23.743 80.608 59.081 1.008 3.201 3.964 5.249 7.151 5.249.746 0 1.506-.112 2.255-.349 3.951-1.244 6.145-5.456 4.9-9.406-1.703-5.408-3.856-10.605-6.403-15.572 2.888-2.04 5.884-3.926 8.984-5.593 3.65-1.963 5.016-6.51 3.053-10.158z"/></g></g><g transform="matrix(1 0 0 1 -14 -16)" id="L1_88" fill="none"><path d="m59 43.053v14.947c0 .5522847-.4477153 1-1 1h-56c-.55228475 0-1-.4477153-1-1v-14.947c-.00282459-.2808364.11328653-.5497611.31962729-.7402881.20634075-.1905271.48365145-.2848727.76337271-.2597119 3.779.413 4.138 2.947 8.577 2.947 4.83 0 4.83-3 9.67-3s4.83 3 9.66 3 4.84-3 9.67-3 4.83 3 9.67 3c4.44 0 4.8-2.535 8.587-2.944.2792702-.0254255.5562711.068416.7625839.2583457s.3227007.4582384.3204161.7386543z" id="L1_51" fill="#a0522d"/><path d="m57.917 42.056c-.705724.0709752-1.3969595.2465645-2.051.521.0845802.1446211.1307125.308494.134.476v14.947c0 .5522847-.4477153 1-1 1h3c.5522847 0 1-.4477153 1-1v-14.947c.0022846-.2804159-.1141033-.5487246-.3204161-.7386543s-.4833137-.2837712-.7625839-.2583457z" id="L1_52" fill="#783e22"/><path d="m11 45v-10" id="L1_53" stroke="#000000" stroke-linejoin="round" stroke-width="2"/><path d="m18.84 21.98c-1.1819137 1.2518444-1.8402278 2.9083628-1.84 4.63v2.39c-.0049563 3.3116533-2.6883467 5.9950437-6 6v-9c0-2.7614237 2.2385763-5 5-5h2.41c.2325076-.0012223.4435116.1358265.5369342.3487431.0934227.2129167.0513997.4609875-.1069342.6312569z" id="L1_54" fill="#008a00"/><path d="m18.41 21h-2.41c-.132 0-.256.029-.386.039.1826986.0668712.3198012.220748.3652348.4099208.0454336.1891727-.0068326.3885303-.1392348.5310792-1.1819137 1.2518444-1.8402278 2.9083628-1.84 4.63v2.39c-.0018397 2.1417525-1.1451868 4.1201241-3 5.191v.809c3.3116533-.0049563 5.9950437-2.6883467 6-6v-2.39c-.0002278-1.7216372.6580863-3.3781556 1.84-4.63.1583339-.1702694.2003569-.4183402.1069342-.6312569-.0934226-.2129166-.3044266-.3499654-.5369342-.3487431z" id="L1_55" fill="#007900"/><path d="m11 26v9c-3.31165334-.0049563-5.99504366-2.6883467-6-6v-2.39c.00022776-1.7216372-.65808626-3.3781556-1.84-4.63-.15833392-.1702694-.20035685-.4183402-.10693424-.6312569.09342262-.2129166.30442662-.3499654.53693424-.3487431h2.41c1.32608245 0 2.59785201.5267842 3.53553391 1.4644661.93768189.9376819 1.46446609 2.2094515 1.46446609 3.5355339z" id="L1_56" fill="#60a917"/><path d="m6 21h-2.41c-.06843049.001241-.13611675.0144398-.2.039 2.59627451.196341 4.60435848 2.3573181 4.61 4.961v8.191c.91073155.5305328 1.94600926.8097127 3 .8090014v-9.0000014c0-2.7614237-2.23857625-5-5-5z" id="L1_57" fill="#549414"/><path d="m37.84 14.98c-1.1819137 1.2518444-1.8402278 2.9083628-1.84 4.63v2.39c-.0049563 3.3116533-2.6883467 5.9950437-6 6v-9c0-2.7614237 2.2385763-5 5-5h2.41c.2325076-.0012223.4435116.1358265.5369342.3487431.0934227.2129167.0513997.4609875-.1069342.6312569z" id="L1_58" fill="#008a00"/><path d="m37.41 14h-2.41c-.132 0-.256.029-.386.039.1826986.0668712.3198012.220748.3652348.4099208.0454336.1891727-.0068326.3885303-.1392348.5310792-1.1819137 1.2518444-1.8402278 2.9083628-1.84 4.63v2.39c-.0018397 2.1417525-1.1451868 4.1201241-3 5.191v.809c3.3116533-.0049563 5.9950437-2.6883467 6-6v-2.39c-.0002278-1.7216372.6580863-3.3781556 1.84-4.63.1583339-.1702694.2003569-.4183402.1069342-.6312569-.0934226-.2129166-.3044266-.3499654-.5369342-.3487431z" id="L1_59" fill="#007900"/><path d="m30 19v9c-3.3116533-.0049563-5.9950437-2.6883467-6-6v-2.39c.0002278-1.7216372-.6580863-3.3781556-1.84-4.63-.1583339-.1702694-.2003569-.4183402-.1069342-.6312569.0934226-.2129166.3044266-.3499654.5369342-.3487431h2.41c2.7614237 0 5 2.2385763 5 5z" id="L1_60" fill="#60a917"/><path d="m25 14h-2.41c-.0684305.001241-.1361167.0144398-.2.039 2.5962745.196341 4.6043585 2.3573181 4.61 4.961v8.191c.9107315.5305328 1.9460093.8097127 3 .8090014v-9.0000014c0-2.7614237-2.2385763-5-5-5z" id="L1_61" fill="#549414"/><path d="m56.84 21.98c-1.1819137 1.2518444-1.8402278 2.9083628-1.84 4.63v2.39c-.0049563 3.3116533-2.6883467 5.9950437-6 6v-9c0-2.7614237 2.2385763-5 5-5h2.41c.2325076-.0012223.4435116.1358265.5369342.3487431.0934227.2129167.0513997.4609875-.1069342.6312569z" id="L1_62" fill="#008a00"/><path d="m56.41 21h-2.41c-.132 0-.256.029-.386.039.1826986.0668712.3198012.220748.3652348.4099208.0454336.1891727-.0068326.3885303-.1392348.5310792-1.1819137 1.2518444-1.8402278 2.9083628-1.84 4.63v2.39c-.0018397 2.1417525-1.1451868 4.1201241-3 5.191v.809c3.3116533-.0049563 5.9950437-2.6883467 6-6v-2.39c-.0002278-1.7216372.6580863-3.3781556 1.84-4.63.1583339-.1702694.2003569-.4183402.1069342-.6312569-.0934226-.2129166-.3044266-.3499654-.5369342-.3487431z" id="L1_63" fill="#007900"/><path d="m49 26v9c-3.3116533-.0049563-5.9950437-2.6883467-6-6v-2.39c.0002278-1.7216372-.6580863-3.3781556-1.84-4.63-.1583339-.1702694-.2003569-.4183402-.1069342-.6312569.0934226-.2129166.3044266-.3499654.5369342-.3487431h2.41c1.3260824 0 2.597852.5267842 3.5355339 1.4644661s1.4644661 2.2094515 1.4644661 3.5355339z" id="L1_64" fill="#60a917"/><path d="m44 21h-2.41c-.0684305.001241-.1361167.0144398-.2.039 2.5962745.196341 4.6043585 2.3573181 4.61 4.961v8.191c.9107315.5305328 1.9460093.8097127 3 .8090014v-9.0000014c0-2.7614237-2.2385763-5-5-5z" id="L1_65" fill="#549414"/><path d="m16 14.5v6.5c-2.7614237 0-5 2.2385763-5 5 0-2.7614237-2.23857625-5-5-5v-6.5c0-3.59 2.24-6.5 5-6.5s5 2.91 5 6.5z" id="L1_66" fill="#ffdc00"/><path d="m11 8c-.5147975.00104506-1.0244004.10296565-1.5.3 2.028.828 3.5 3.291 3.5 6.2v6.5c-1.3101383-.0003584-2.5676445.5155784-3.5 1.436.9594457.9375959 1.5002303 2.2225001 1.5 3.564 0-2.7614237 2.2385763-5 5-5v-6.5c0-3.59-2.24-6.5-5-6.5z" id="L1_67" fill="#fec108"/><path d="m29.99 45 .01-17" id="L1_68" stroke="#000000" stroke-linejoin="round" stroke-width="2"/><path d="m49 45v-10" id="L1_69" stroke="#000000" stroke-linejoin="round" stroke-width="2"/><g><path d="m54 14.5v6.5c-2.7614237 0-5 2.2385763-5 5 0-2.7614237-2.2385763-5-5-5v-6.5c0-3.59 2.24-6.5 5-6.5s5 2.91 5 6.5z" id="L1_70" fill="#ffdc00"/><path d="m49 8c-.5147975.00104506-1.0244004.10296565-1.5.3 2.028.828 3.5 3.291 3.5 6.2v6.5c-1.3101383-.0003584-2.5676445.5155784-3.5 1.436.9594457.9375959 1.5002303 2.2225001 1.5 3.564 0-2.7614237 2.2385763-5 5-5v-6.5c0-3.59-2.24-6.5-5-6.5z" id="L1_71" fill="#fec108"/><path d="m35 7.5v6.5c-2.7614237 0-5 2.2385763-5 5 0-2.7614237-2.2385763-5-5-5v-6.5c0-3.59 2.24-6.5 5-6.5s5 2.91 5 6.5z" id="L1_72" fill="#ffdc00"/><path d="m30 1c-.5147975.00104506-1.0244004.10296565-1.5.3 2.028.827 3.5 3.29 3.5 6.2v6.5c-1.3101383-.0003584-2.5676445.5155784-3.5 1.436.9594457.9375959 1.5002303 2.2225001 1.5 3.564 0-2.7614237 2.2385763-5 5-5v-6.5c0-3.59-2.24-6.5-5-6.5z" id="L1_73" fill="#fec108"/><path d="m2 60h56c1.1045695 0 2-.8954305 2-2v-14.947c.0021973-.564201-.234845-1.1028968-.6523145-1.4824318-.4174695-.3795351-.9762437-.5643419-1.5376855-.5085682-3.793.409-4.427 2.674-7.81 2.913v-8.055c3.4409267-.4966526 5.9959255-3.4434178 6-6.92v-2.4c-.0021324-1.4639925.5585255-2.8727976 1.566-3.935.4285838-.4617026.5432815-1.133291.2922256-1.7110663-.2510558-.5777754-.820265-.9521915-1.4502256-.9539337h-1.408v-5.5c0-4.136-2.691-7.5-6-7.5s-6 3.364-6 7.5v5.5h-1.408c-.6324105-.0009055-1.2049173.3739829-1.4569173.9540172-.2519999.5800344-.135324 1.254343.2969173 1.7159828 1.83 1.936 1.568 3.866 1.568 6.33.0040745 3.4765822 2.5590733 6.4233474 6 6.92v7.98c-3.144-.5-3.719-2.9-8.34-2.9-4.812 0-5.172 2.549-8.669 2.941l.009-15.021c3.4409267-.4966526 5.9959255-3.4434178 6-6.92v-2.4c-.0021324-1.4639925.5585255-2.8727976 1.566-3.935.4285838-.4617026.5432815-1.133291.2922256-1.7110663-.2510558-.5777754-.820265-.9521915-1.4502256-.9539337h-1.408v-5.5c0-4.136-2.691-7.5-6-7.5s-6 3.364-6 7.5v5.5h-1.408c-.6324105-.0009055-1.2049173.3739829-1.4569173.9540172-.2519999.5800344-.135324 1.254343.2969173 1.7159828 1.83 1.936 1.568 3.866 1.568 6.33.0040745 3.4765822 2.5590733 6.4233474 6 6.92l-.008 15.021c-3.463-.39-3.906-2.941-8.662-2.941-4.67 0-5.178 2.4-8.33 2.9v-7.98c3.4409267-.4966526 5.9959255-3.4434178 6-6.92v-2.4c-.0021324-1.4639925.5585255-2.8727976 1.566-3.935.4285838-.4617026.5432815-1.133291.2922256-1.7110663-.2510558-.5777754-.820265-.9521915-1.4502256-.9539337h-1.408v-5.5c0-4.136-2.691-7.5-6-7.5s-6 3.364-6 7.5v5.5h-1.408c-.63241045-.0009055-1.20491733.3739829-1.45691727.9540172-.25199994.5800344-.13532401 1.254343.29691727 1.7159828 1.83 1.936 1.568 3.866 1.568 6.33.00407452 3.4765822 2.55907331 6.4233474 6 6.92v8.055c-3.414-.237-3.978-2.5-7.809-2.913-.56153362-.0557535-1.12039741.1290285-1.53801925.5085288s-.6548928.9181798-.65298075 1.4824712v14.947c0 1.1045695.8954305 2 2 2zm52-31c-.0026123 2.3752386-1.6733709 4.421918-4 4.9v-7.9c0-2.209139 1.790861-4 4-4h1.523c-1.746 2.349-1.523 4.378-1.523 7zm-5-20c2.206 0 4 2.467 4 5.5v5.59c-1.6350304.2774565-3.0826548 1.2184124-4 2.6-.9173452-1.3815876-2.3649696-2.3225435-4-2.6v-5.59c0-3.033 1.794-5.5 4-5.5zm-5 20c0-2.651.23-4.64-1.523-7h1.523c2.209139 0 4 1.790861 4 4v7.9c-2.3266291-.478082-3.9973877-2.5247614-4-4.9zm-9-7c-.0026123 2.3752386-1.6733709 4.421918-4 4.9v-7.9c0-2.209139 1.790861-4 4-4h1.523c-1.746 2.349-1.523 4.378-1.523 7zm-5-20c2.206 0 4 2.467 4 5.5v5.59c-1.6350304.2774565-3.0826548 1.2184124-4 2.6-.9173452-1.3815876-2.3649696-2.3225435-4-2.6v-5.59c0-3.033 1.794-5.5 4-5.5zm-5 20c0-2.651.23-4.64-1.523-7h1.523c2.209139 0 4 1.790861 4 4v7.9c-2.3266291-.478082-3.9973877-2.5247614-4-4.9zm-9 7c-.0026123 2.3752386-1.6733709 4.421918-4 4.9v-7.9c0-2.209139 1.790861-4 4-4h1.523c-1.746 2.349-1.523 4.378-1.523 7zm-5-20c2.206 0 4 2.467 4 5.5v5.59c-1.6350304.2774565-3.0826548 1.2184124-4 2.6-.9173452-1.3815876-2.36496965-2.3225435-4-2.6v-5.59c0-3.033 1.794-5.5 4-5.5zm-5 20c0-2.651.23-4.64-1.523-7h1.523c2.209139 0 4 1.790861 4 4v7.9c-2.32662911-.478082-3.99738774-2.5247614-4-4.9zm5 17c.0292979-.0044574.0583387-.0104659.087-.018 1.7676308-.048948 3.4819383-.6160951 4.93-1.631 1.2498692-.9125961 2.7658493-1.3874603 4.313-1.351 4.332 0 4.583 3 9.66 3s5.33-3 9.67-3c4.244 0 4.5 2.812 9.256 2.983.0276677.0071998.05571.0128751.084.017 5.407 0 5.382-2.543 9-2.956.0011676.0028864.0011676.0061136 0 .009v14.947h-56l-.025-14.95c3.617.393 3.625 2.95 9.025 2.95z" id="L1_74" fill="#000000"/><path d="m10 14h1c.5522847 0 1-.4477153 1-1s-.4477153-1-1-1h-1c-.55228475 0-1 .4477153-1 1s.44771525 1 1 1z" id="L1_75" fill="#000000"/><path d="m11 16c-.5522847 0-1 .4477153-1 1s.4477153 1 1 1h1c.5522847 0 1-.4477153 1-1s-.4477153-1-1-1z" id="L1_76" fill="#000000"/><path d="m48 14h1c.5522847 0 1-.4477153 1-1s-.4477153-1-1-1h-1c-.5522847 0-1 .4477153-1 1s.4477153 1 1 1z" id="L1_77" fill="#000000"/><path d="m49 16c-.5522847 0-1 .4477153-1 1s.4477153 1 1 1h1c.5522847 0 1-.4477153 1-1s-.4477153-1-1-1z" id="L1_78" fill="#000000"/><path d="m30 7h1c.5522847 0 1-.44771525 1-1s-.4477153-1-1-1h-1c-.5522847 0-1 .44771525-1 1s.4477153 1 1 1z" id="L1_79" fill="#000000"/><path d="m29 11h1c.5522847 0 1-.4477153 1-1 0-.55228475-.4477153-1-1-1h-1c-.5522847 0-1 .44771525-1 1 0 .5522847.4477153 1 1 1z" id="L1_80" fill="#000000"/><path d="m18 48.292c.0912591-.0000665.1820874-.0125133.27-.037.6716441-.1794752 1.3648659-.2652867 2.06-.255.4994396-.0038643.9981852.0379768 1.49.125.3515493.0643078.7107021-.0638187.942169-.3361154.2314669-.2722968.3000825-.6473955.18-.984-.1200825-.3366046-.4106197-.5835768-.762169-.6478846-.6105759-.108737-1.2298321-.1612901-1.85-.157-.877699-.0108862-1.7526771.0998322-2.6.329-.4813264.1347019-.7892782.604104-.7211719 1.0992618.0681062.4951578.4913523.8639876.9911719.8637382z" id="L1_81" fill="#000000"/><path d="m32 51.292c.0912591-.0000665.1820874-.0125133.27-.037.6716441-.1794752 1.3648659-.2652867 2.06-.255.4994396-.0038643.9981852.0379768 1.49.125.3515493.0643078.7107021-.0638187.942169-.3361154.2314669-.2722968.3000825-.6473955.18-.984-.1200825-.3366046-.4106197-.5835768-.762169-.6478846-.6105759-.108737-1.2298321-.1612901-1.85-.157-.877699-.0108862-1.7526771.0998322-2.6.329-.4813264.1347019-.7892782.604104-.7211719 1.0992618.0681062.4951578.4913523.8639876.9911719.8637382z" id="L1_82" fill="#000000"/><path d="m43 50.292c.0912591-.0000665.1820874-.0125133.27-.037.6716564-.1794123 1.3648694-.2652227 2.06-.255.4994396-.0038643.9981852.0379768 1.49.125.3515493.0643078.7107021-.0638187.942169-.3361154.2314669-.2722968.3000825-.6473955.18-.984-.1200825-.3366046-.4106197-.5835768-.762169-.6478846-.6105759-.108737-1.2298321-.1612901-1.85-.157-.8776917-.0107577-1.7526522.0999584-2.6.329-.4813264.1347019-.7892782.604104-.7211719 1.0992618.0681062.4951578.4913523.8639876.9911719.8637382z" id="L1_83" fill="#000000"/><path d="m7 51.292c.09125911-.0000665.18208736-.0125133.27-.037.67164413-.1794752 1.36486593-.2652867 2.06-.255.49943957-.0038643.9981852.0379768 1.49.125.5434482.0994112 1.0645887-.2605518 1.164-.804.0994112-.5434482-.2605518-1.0645887-.804-1.164-.6105759-.108737-1.22983209-.1612901-1.85-.157-.87769898-.0108862-1.75267708.0998322-2.6.329-.48132644.1347019-.78927821.604104-.72117193 1.0992618.06810627.4951578.49135228.8639876.99117193.8637382z" id="L1_84" fill="#000000"/><path d="m40 55.292c.0912591-.0000665.1820874-.0125133.27-.037.6716441-.1794752 1.3648659-.2652867 2.06-.255.4994396-.0038643.9981852.0379768 1.49.125.3515493.0643078.7107021-.0638187.942169-.3361154.2314669-.2722968.3000825-.6473955.18-.984-.1200825-.3366046-.4106197-.5835768-.762169-.6478846-.6105759-.108737-1.2298321-.1612901-1.85-.157-.877699-.0108862-1.7526771.0998322-2.6.329-.4813264.1347019-.7892782.604104-.7211719 1.0992618.0681062.4951578.4913523.8639876.9911719.8637382z" id="L1_85" fill="#000000"/><path d="m50 54c.0912591-.0000665.1820874-.0125133.27-.037.6717511-.1789248 1.3648964-.2647267 2.06-.255.4994347-.003736.9981687.0381041 1.49.125.3515493.0643078.7107021-.0638187.942169-.3361154.2314669-.2722968.3000825-.6473955.18-.984-.1200825-.3366046-.4106197-.5835768-.762169-.6478846-.6105984-.1085649-1.2298389-.1611166-1.85-.157-.8776917-.0107577-1.7526522.0999584-2.6.329-.4813264.1347019-.7892782.604104-.7211719 1.0992618.0681062.4951578.4913523.8639876.9911719.8637382z" id="L1_86" fill="#000000"/><path d="m22.037 53.562c.0715771.2554236.2417058.4719432.4729477.6019112.2312419.1299681.5046479.1627346.7600523.0910888.6716441-.1794752 1.3648659-.2652867 2.06-.255.4994396-.0038643.9981852.0379768 1.49.125.3515493.0643078.7107021-.0638187.942169-.3361154.2314669-.2722968.3000825-.6473955.18-.984-.1200825-.3366046-.4106197-.5835768-.762169-.6478846-.6105759-.108737-1.2298321-.1612901-1.85-.157-.877699-.0108862-1.7526771.0998322-2.6.329-.2554236.0715771-.4719432.2417058-.6019112.4729477-.1299681.2312419-.1627346.5046479-.0910888.7600523z" id="L1_87" fill="#000000"/><path d="m11.037 54.562c.0715771.2554236.2417058.4719432.4729477.6019112.2312419.1299681.5046479.1627346.7600523.0910888.6716441-.1794752 1.3648659-.2652867 2.06-.255.4994396-.0038643.9981852.0379768 1.49.125.3515493.0643078.7107021-.0638187.942169-.3361154.2314669-.2722968.3000825-.6473955.18-.984-.1200825-.3366046-.4106197-.5835768-.762169-.6478846-.6105759-.108737-1.2298321-.1612901-1.85-.157-.877699-.0108862-1.7526771.0998322-2.6.329-.2554236.0715771-.4719432.2417058-.6019112.4729477-.1299681.2312419-.1627346.5046479-.0910888.7600523z" id="Shape" fill="#000000"/></g></g><g transform="matrix(0.11718759685754776 0 0 0.11718759685754776 211 -16)" id="L1_89"><g fill="#ffc66c"><path d="m108.273438 255.351562c0-25.148437-22-45.535156-49.136719-45.535156s-49.136719 20.386719-49.136719 45.535156c0 25.148438 22 45.535157 49.136719 45.535157s49.136719-20.386719 49.136719-45.535157zm0 0"/><path d="m243.363281 82.046875c-17.78125-17.78125-47.753906-16.640625-66.941406 2.546875-19.191406 19.191406-20.332031 49.164062-2.546875 66.945312 17.78125 17.78125 47.753906 16.640626 66.941406-2.546874 19.191406-19.1875 20.332032-49.160157 2.546875-66.945313zm0 0"/><path d="m22.625 92.582031c17.785156 17.785157 47.753906 16.644531 66.945312-2.546875 19.1875-19.1875 20.328126-49.160156 2.546876-66.941406-17.785157-17.785156-47.753907-16.644531-66.945313 2.546875-19.1875 19.1875-20.328125 49.160156-2.546875 66.941406zm0 0"/></g><path d="m258.191406 253.867188c34.835938-34.832032 63.484375-23.285157 78.753906-45.273438 15.265626-21.984375 12.824219-54.964844 43.359376-87.332031 30.535156-32.367188 84.890624-19.542969 101.988281-56.796875 33.589843 35.421875 16.570312 100.949218 4.855469 126.21875-19.863282 42.84375-37.425782 48.890625-57.984376 77.761718-16.714843 23.464844-2.03125 63.699219-49.75 111.417969-47.722656 47.722657-87.953124 33.039063-111.417968 49.75-28.871094 20.5625-34.917969 38.121094-77.761719 57.984375-25.269531 11.71875-90.796875 28.738282-126.21875-4.851562 37.253906-17.101563 24.429687-71.453125 56.796875-101.992188 32.367188-30.535156 65.347656-28.09375 87.332031-43.359375 21.984375-15.269531 17.65625-51.132812 52.488281-85.96875" fill="#a0e557"/><path d="m372.566406 372.570312-.222656.222657c-3.90625 3.90625-3.90625 10.238281 0 14.144531 1.953125 1.949219 4.511719 2.925781 7.070312 2.925781 2.558594 0 5.117188-.976562 7.070313-2.925781l.300781-.304688c3.882813-3.925781 3.847656-10.257812-.078125-14.140624-3.925781-3.882813-10.257812-3.847657-14.140625.078124zm0 0"/><path d="m489.550781 57.585938c-2.285156-2.410157-5.617187-3.527344-8.894531-2.984376-3.273438.542969-6.066406 2.675782-7.449219 5.691407-6.917969 15.066406-21.25 19.707031-44.0625 26.027343-18.796875 5.207032-40.101562 11.105469-56.113281 28.078126-20.191406 21.402343-27.199219 43.421874-32.828125 61.113281-3.421875 10.753906-6.378906 20.042969-11.472656 27.378906-4.8125 6.925781-11.363281 9.203125-23.488281 12.949219-14.328126 4.425781-32.023438 9.894531-51.652344 28.558594-.007813-.015626-.015625-.027344-.023438-.042969-.410156.410156-.808594.820312-1.207031 1.230469-.414063.402343-.824219.800781-1.238281 1.214843.015625.003907.03125.011719.046875.019531-18.359375 19.304688-25.980469 38.714844-32.148438 54.433594-4.945312 12.605469-8.851562 22.5625-16.578125 27.929688-7.339844 5.09375-16.625 8.050781-27.378906 11.472656-17.691406 5.628906-39.710938 12.636719-61.113281 32.828125-16.972657 16.011719-22.871094 37.316406-28.078125 56.113281-6.320313 22.8125-10.960938 37.144532-26.027344 44.0625-3.015625 1.382813-5.148438 4.175782-5.691406 7.449219-.542969 3.277344.574218 6.609375 2.984375 8.894531 17.785156 16.863282 41.480469 22.449219 64.589843 22.449219 29.984376 0 58.96875-9.410156 72.714844-15.78125 28.738282-13.324219 42.144532-26.015625 55.109375-38.289063 7.359375-6.964843 14.308594-13.546874 24.246094-20.625 6.652344-4.734374 15.855469-6.414062 27.503906-8.539062 14.089844-2.570312 31.621094-5.769531 50.734375-16.113281 4.855469-2.628907 6.664063-8.699219 4.035156-13.554688-2.628906-4.859375-8.699218-6.660156-13.554687-4.035156-16.316406 8.832031-31.449219 11.59375-44.804687 14.027344-12.976563 2.367187-25.234376 4.605469-35.515626 11.925781-11.074218 7.886719-18.863281 15.261719-26.394531 22.390625-12.34375 11.683594-24 22.71875-49.773437 34.667969-17.578125 8.152344-70.5 24.269531-104.65625 4.726562 13.8125-12.375 18.859375-30.585937 23.769531-48.316406 4.730469-17.074219 9.621094-34.726562 22.535156-46.90625 18.085938-17.0625 36.0625-22.785156 53.449219-28.316406 11.78125-3.75 22.910156-7.289063 32.722656-14.105469 12.722656-8.832031 18.097656-22.539063 23.789063-37.046875 5.90625-15.054688 12.589843-32.066406 28.863281-48.832031 16.609375-16.117188 31.484375-20.714844 44.644531-24.78125 12.878907-3.976563 25.042969-7.734375 34.011719-20.648438 6.8125-9.808593 10.355469-20.9375 14.105469-32.722656 5.53125-17.386719 11.253906-35.363281 28.316406-53.449219 12.179687-12.914062 29.832031-17.804687 46.902344-22.53125 17.734375-4.914062 35.945312-9.960937 48.320312-23.769531 19.542969 34.15625 3.425781 87.074219-4.726562 104.652344-11.949219 25.773437-22.984375 37.429687-34.667969 49.773437-7.132812 7.53125-14.503906 15.320313-22.390625 26.394532-7.324219 10.28125-9.558594 22.539062-11.925781 35.519531-2.433594 13.320312-5.1875 28.421875-13.972656 44.691406-2.621094 4.863281-.808594 10.929687 4.050781 13.550781 1.511719.816406 3.136719 1.203125 4.742187 1.203125 3.554688 0 7-1.902343 8.808594-5.25 10.289062-19.066406 13.480469-36.554687 16.046875-50.609375 2.125-11.648437 3.800781-20.851562 8.539063-27.503906 7.078124-9.9375 13.65625-16.886719 20.625-24.246094 12.273437-12.964844 24.964843-26.375 38.289062-55.109375 11.285156-24.34375 32.078125-96.449219-6.667969-137.308593zm0 0"/><path d="m283.242188 293.816406c-3.90625-3.90625-10.238282-3.90625-14.144532 0-19.734375 19.738282-19.734375 51.851563 0 71.589844 1.953125 1.953125 4.511719 2.929688 7.070313 2.929688 2.558593 0 5.117187-.976563 7.070312-2.929688 3.90625-3.902344 3.90625-10.234375 0-14.140625-11.9375-11.941406-11.9375-31.367187 0-43.308594 3.90625-3.90625 3.90625-10.238281.003907-14.140625zm0 0"/><path d="m147.753906 409.792969c-3.90625-3.90625-10.238281-3.90625-14.144531 0-7.351563 7.351562-11.398437 17.121093-11.398437 27.519531 0 10.394531 4.050781 20.167969 11.398437 27.519531 1.953125 1.949219 4.511719 2.925781 7.070313 2.925781 2.558593 0 5.117187-.976562 7.070312-2.925781 3.90625-3.90625 3.90625-10.238281 0-14.144531-7.375-7.375-7.375-19.375 0-26.753906 3.90625-3.90625 3.90625-10.238282.003906-14.140625zm0 0"/><path d="m408.84375 157.09375c-3.90625-3.90625-10.234375-3.90625-14.140625 0-6.636719 6.632812-10.289063 15.453125-10.289063 24.835938 0 9.382812 3.652344 18.203124 10.289063 24.839843 1.953125 1.953125 4.511719 2.925781 7.070313 2.925781 2.558593 0 5.117187-.972656 7.070312-2.925781 3.902344-3.90625 3.902344-10.238281 0-14.144531-2.859375-2.855469-4.429688-6.652344-4.429688-10.695312 0-4.039063 1.570313-7.835938 4.429688-10.695313 3.90625-3.90625 3.90625-10.234375 0-14.140625zm0 0"/><path d="m118.273438 255.351562c0-30.621093-26.527344-55.535156-59.136719-55.535156s-59.136719 24.914063-59.136719 55.535156c0 30.621094 26.527344 55.535157 59.136719 55.535157s59.136719-24.914063 59.136719-55.535157zm-98.273438 0c0-16.457031 12.386719-30.332031 29.136719-34.355468v2.660156c0 5.523438 4.480469 10 10 10 5.523437 0 10-4.476562 10-10v-2.660156c16.753906 4.023437 29.140625 17.898437 29.140625 34.355468 0 19.59375-17.558594 35.535157-39.140625 35.535157-21.578125 0-39.136719-15.941407-39.136719-35.535157zm0 0"/><path d="m205.003906 174.128906c15.269532 0 30.882813-6.066406 42.886719-18.066406 23.058594-23.058594 24.199219-59.433594 2.546875-81.085938-21.652344-21.652343-58.027344-20.511718-81.085938 2.546876-23.058593 23.058593-24.199218 59.433593-2.546874 81.085937 10.382812 10.382813 24.140624 15.519531 38.199218 15.519531zm31.292969-85.011718c13.855469 13.855468 12.710937 37.542968-2.546875 52.804687-15.261719 15.257813-38.949219 16.402344-52.804688 2.546875-11.636718-11.636719-12.6875-30.207031-3.6875-44.898438l1.882813 1.882813c1.949219 1.953125 4.511719 2.925781 7.070313 2.925781 2.558593 0 5.117187-.976562 7.070312-2.925781 3.902344-3.90625 3.902344-10.238281 0-14.144531l-1.878906-1.878906c6.496094-3.980469 13.75-6 20.832031-6 8.925781 0 17.574219 3.199218 24.0625 9.6875zm0 0"/><path d="m53.753906 115.175781c15.265625 0 30.882813-6.066406 42.886719-18.070312 23.058594-23.054688 24.199219-59.429688 2.546875-81.085938-21.652344-21.652343-58.027344-20.507812-81.085938 2.550781-23.058593 23.054688-24.199218 59.429688-2.546874 81.085938 10.382812 10.378906 24.140624 15.519531 38.199218 15.519531zm-21.511718-82.464843c7.492187-7.496094 17.191406-11.832032 27.308593-12.21875.488281-.015626.96875-.027344 1.449219-.027344 9.269531 0 17.761719 3.414062 24.046875 9.699218 11.636719 11.636719 12.6875 30.207032 3.6875 44.894532l-1.882813-1.878906c-3.902343-3.90625-10.234374-3.90625-14.140624 0-3.902344 3.90625-3.902344 10.234374 0 14.140624l1.890624 1.886719c-5.910156 3.636719-12.5625 5.714844-19.410156 5.972657-9.847656.378906-18.886718-3.058594-25.496094-9.667969-13.855468-13.855469-12.710937-37.539063 2.546876-52.800781zm0 0"/></g><g transform="matrix(-0.1540440171957016 0 0 0.1540440171957016 179.2996945232153 99.48560691497153)" id="L1_94"><path d="m285.941406 118h-147.277344c-35.382812 0-66.101562 24.378906-74.136718 58.839844l-21.679688 92.992187 70.800782 74.972657h248.714843zm0 0" fill="#29ce69"/><path d="m185.257812 118h-46.59375c-35.382812 0-66.101562 24.378906-74.136718 58.839844l-21.679688 92.992187 70.800782 74.972657h28.015624zm0 0" fill="#6a829a"/><path d="m285.941406 118h-147.277344c-26.871093 0-51.039062 14.070312-64.636718 35.929688h224.019531zm0 0" fill="#f9ee80"/><path d="m249.894531 285.109375 46.652344-258.460937h178.289063v291.160156zm0 0" fill="#73da8c"/><path d="m284.882812 91.261719s86.78125-3.410157 127.261719 36.519531c18.355469 18.105469 42.152344 27.5 62.691407 32.359375v-133.492187h-178.289063zm0 0" fill="#29ce69"/><path d="m273.570312 153.929688h109.957032c14.867187 0 27.277344-11.339844 28.617187-26.148438l7.472657-82.539062h-126.429688zm0 0" fill="#a4e7ff"/><path d="m293.1875 45.242188-8.304688 46.019531s86.78125-3.410157 127.261719 36.519531l7.46875-82.539062zm0 0" fill="#5ad6ff"/><path d="m106.027344 239.269531c-42.109375 0-78.535156 24.792969-95.453125 60.546875-9.890625 20.898438 5.34375 44.988282 28.464843 44.988282h133.976563c23.125 0 38.359375-24.089844 28.46875-44.988282-16.917969-35.753906-53.347656-60.546875-95.457031-60.546875zm0 0" fill="#b9ecc2"/><path d="m464.082031 344.804688c24.582031 0 43.621094-21.808594 39.964844-46.117188-7.097656-47.210938-34.269531-113.402344-128.34375-113.402344-93.722656 0-121.042969 65.691406-128.265625 112.867188-3.753906 24.515625 15.085938 46.652344 39.890625 46.652344zm0 0" fill="#b9ecc2"/><path d="m474.835938 317.808594c0 54.75-44.386719 99.132812-99.136719 99.132812s-99.132813-44.382812-99.132813-99.132812 44.382813-99.132813 99.132813-99.132813 99.136719 44.382813 99.136719 99.132813zm0 0" fill="#516980"/><path d="m178.171875 344.804688c0 39.839843-32.300781 72.140624-72.144531 72.140624-39.839844 0-72.140625-32.300781-72.140625-72.140624 0-39.84375 32.300781-72.140626 72.140625-72.140626 39.84375 0 72.144531 32.296876 72.144531 72.140626zm0 0" fill="#516980"/><path d="m467.558594 62.078125h-183.714844c-14.929688 0-27.035156-12.105469-27.035156-27.039063 0-14.933593 12.105468-27.039062 27.035156-27.039062h183.710938c14.933593 0 27.039062 12.105469 27.039062 27.039062 0 14.933594-12.101562 27.039063-27.035156 27.039063zm0 0" fill="#f9ee80"/><path d="m321.363281 35.039062c0-14.933593 12.105469-27.039062 27.035157-27.039062h-64.554688c-14.929688 0-27.035156 12.105469-27.035156 27.039062 0 14.933594 12.105468 27.039063 27.035156 27.039063h64.554688c-14.929688 0-27.035157-12.105469-27.035157-27.039063zm0 0" fill="#f4e74d"/><path d="m136.820312 344.804688c0 17.003906-13.785156 30.789062-30.792968 30.789062-17.003906 0-30.789063-13.785156-30.789063-30.789062 0-17.007813 13.785157-30.789063 30.789063-30.789063 17.007812 0 30.792968 13.78125 30.792968 30.789063zm0 0" fill="#3e4f61"/><path d="m423.257812 317.808594c0 26.265625-21.292968 47.554687-47.558593 47.554687-26.261719 0-47.554688-21.289062-47.554688-47.554687 0-26.261719 21.292969-47.554688 47.554688-47.554688 26.265625 0 47.558593 21.292969 47.558593 47.554688zm0 0" fill="#3e4f61"/><path d="m97.453125 184.898438h-34.804687l-7.738282 33.195312h42.542969c9.167969 0 16.597656-7.429688 16.597656-16.597656 0-9.167969-7.429687-16.597656-16.597656-16.597656zm0 0" fill="#ffbe73"/><path d="m511.464844 297.570312c-3.199219-21.285156-10.90625-49.429687-29.128906-73.089843v-158.234375c11.667968-5.546875 19.757812-17.449219 19.757812-31.207032 0-19.042968-15.492188-34.539062-34.539062-34.539062h-19.46875c-4.144532 0-7.5 3.359375-7.5 7.5s3.355468 7.5 7.5 7.5h19.46875c10.773437 0 19.539062 8.765625 19.539062 19.539062 0 10.773438-8.765625 19.539063-19.539062 19.539063h-183.710938c-10.769531 0-19.535156-8.765625-19.535156-19.539063 0-10.773437 8.765625-19.539062 19.535156-19.539062h134.257812c4.144532 0 7.5-3.359375 7.5-7.5s-3.355468-7.5-7.5-7.5h-134.257812c-19.042969 0-34.535156 15.492188-34.535156 34.539062 0 18.152344 14.078125 33.066407 31.886718 34.425782l-7.40625 41.035156h-135.125c-39.074218 0-72.5625 26.582031-81.4375 64.636719l-18.40625 78.941406c-14.746093 10.910156-26.921874 25.398437-35.027343 42.53125-5.304688 11.207031-5.035157 23.914063.738281 34.855469 4.789062 9.078125 12.640625 15.703125 22.066406 18.832031 2.835938 41.359375 37.363282 74.148437 79.429688 74.148437 41.386718 0 75.484375-31.734374 79.277344-72.140624h89.492187c14.367187 41.917968 54.171875 72.140624 100.902344 72.140624 47.40625 0 87.675781-31.097656 101.507812-73.957031 10.242188-2.894531 19.214844-9.113281 25.605469-17.839843 7.453125-10.171876 10.523438-22.628907 8.652344-35.078126zm-303.203125-.960937c-9.132813-19.304687-23.4375-35.246094-40.757813-46.5l17.042969-88.679687h80.046875l-22.078125 122.332031c-1.039063 4.625-1.855469 9.074219-2.492187 13.257812-2.316407 15.117188 2.761718 29.835938 12.585937 40.285157h-48.835937c10.578124-12.386719 9.796874-29.488282 4.488281-40.695313zm71.578125-135.179687h103.6875c18.871094 0 34.386718-14.175782 36.085937-32.96875l5.332031-58.882813h42.390626v138.820313c-20.359376-17.984376-49.613282-30.613282-91.636719-30.613282-54.433594 0-87.441407 21.207032-107.433594 47.757813zm2.707031-15 13.871094-76.855469h113.464843l-5.207031 57.53125c-.996093 11.015625-10.089843 19.320312-21.148437 19.320312h-100.980469zm-143.882813-20.929688h132.417969l-3.777343 20.929688h-178.070313c12.570313-13.054688 30.167969-20.929688 49.429687-20.929688zm-70.0625 66.898438h28.851563c5.019531 0 9.101563 4.082031 9.101563 9.097656s-4.082032 9.097656-9.101563 9.097656h-33.09375zm-7.742187 33.195312h36.59375c13.289063 0 24.101563-10.808594 24.101563-24.097656 0-13.289063-10.8125-24.097656-24.101563-24.097656h-25.328125c1.421875-5.667969 3.507812-11.019532 6.175781-15.96875h90.972657l-15.570313 81.011718c-14.707031-6.886718-30.941406-10.671875-47.671875-10.671875-17.34375 0-34.148438 4.0625-49.273438 11.433594zm45.167969 183.851562c-35.644532 0-64.640625-29-64.640625-64.640624 0-19.988282 9.03125-38.539063 24.777343-50.894532 3.261719-2.554687 3.828126-7.269531 1.273438-10.527344-2.558594-3.257812-7.273438-3.828124-10.53125-1.273437-16.566406 13-27.09375 31.570313-29.8125 52.054687-3.878906-2.222656-7.105469-5.542968-9.296875-9.695312-3.550781-6.726562-3.710937-14.542969-.445313-21.445312 16.167969-34.171876 50.976563-56.25 88.675782-56.25 37.699218 0 72.507812 22.078124 88.675781 56.25 3.265625 6.902343 5.964844 23.796874-9.765625 31.15625-5.210938-38.90625-38.601562-69.015626-78.910156-69.015626-6.800782 0-13.554688.859376-20.078125 2.554688-4.011719 1.042969-6.414063 5.136719-5.375 9.144531 1.042969 4.007813 5.140625 6.417969 9.144531 5.371094 5.296875-1.375 10.78125-2.070313 16.308594-2.070313 35.644531 0 64.644531 28.996094 64.644531 64.640626 0 35.640624-29 64.640624-64.644531 64.640624zm269.675781 0c-50.527344 0-91.636719-41.105468-91.636719-91.632812s41.105469-91.636719 91.636719-91.636719c50.523437 0 91.632813 41.105469 91.632813 91.636719 0 50.523438-41.109376 91.632812-91.632813 91.632812zm105.628906-77.035156c.65625-4.773437 1.003907-9.648437 1.003907-14.597656 0-58.800781-47.835938-106.636719-106.636719-106.636719-58.796875 0-106.632813 47.835938-106.632813 106.636719 0 4.953125.347656 9.824219 1.003906 14.601562-10.910156-6.785156-17.273437-19.726562-15.21875-33.125 3.046876-19.910156 10.714844-48.273437 29.933594-70.332031 20.914063-24.003906 51.503906-36.171875 90.914063-36.171875 39.546875 0 70.203125 12.25 91.121093 36.40625 19.195313 22.167969 26.808594 50.632813 29.8125 70.609375 1.976563 13.15625-4.480468 25.898438-15.300781 32.609375zm0 0"/><path d="m106.027344 306.515625c-21.109375 0-38.289063 17.175781-38.289063 38.289063 0 21.109374 17.179688 38.289062 38.289063 38.289062 21.113281 0 38.292968-17.179688 38.292968-38.289062 0-21.113282-17.179687-38.289063-38.292968-38.289063zm0 61.578125c-12.839844 0-23.289063-10.449219-23.289063-23.289062 0-12.84375 10.449219-23.292969 23.289063-23.292969 12.84375 0 23.292968 10.449219 23.292968 23.292969 0 12.839843-10.449218 23.289062-23.292968 23.289062zm0 0"/><path d="m375.703125 262.753906c-30.359375 0-55.058594 24.699219-55.058594 55.054688 0 30.359375 24.699219 55.054687 55.058594 55.054687 30.355469 0 55.054687-24.695312 55.054687-55.054687 0-30.355469-24.699218-55.054688-55.054687-55.054688zm0 95.109375c-22.085937 0-40.058594-17.96875-40.058594-40.054687 0-22.085938 17.972657-40.054688 40.058594-40.054688s40.054687 17.96875 40.054687 40.054688c0 22.085937-17.96875 40.054687-40.054687 40.054687zm0 0"/></g><g transform="matrix(0.1171875 0 0 0.1171875 288 231.00000123023983)" id="L1_95"><path d="M416.099,413.502c-19.326,0-37.303,5.737-52.361,15.572c-18.634-49.003-66.015-83.838-121.556-83.838  c-51.313,0-95.668,29.731-116.82,72.898c-9.286-2.996-19.182-4.632-29.465-4.632C42.935,413.502,0,456.437,0,509.4h511.997  C511.997,456.437,469.062,413.502,416.099,413.502z" fill="#975d50"/><g><path d="M512,509.403h-18.966c-11.87-39.486-48.496-68.254-91.849-68.254c-1.091,0-2.181,0.02-3.271,0.051   c-1.029-0.031-2.057-0.051-3.095-0.051c-16.171,0-31.402,4.02-44.767,11.09c-1.324,0.7-2.975,0.128-3.574-1.245   c-20.035-45.971-65.861-78.11-119.209-78.11c-1.06,0-2.109,0.01-3.157,0.041c-1.07-0.031-2.139-0.041-3.21-0.041   c-35.691,0-68.018,14.379-91.51,37.676c22.443-39.023,64.531-65.323,112.79-65.323c55.541,0,102.926,34.836,121.553,83.836   c15.058-9.833,33.036-15.572,52.364-15.572C469.058,413.501,512,456.432,512,509.403z" fill="#7f443b"/><circle cx="108" cy="436" r="8" fill="#7f443b"/><circle cx="316" cy="459" r="8" fill="#7f443b"/><circle cx="290" cy="431" r="8" fill="#7f443b"/></g><path d="M252.572,3.24c-2.664,1.466-7.261,4.168-12.762,8.128c-49.635,35.736-49.635,109.964,0,145.699  c8.773,6.317,15.248,9.434,15.248,9.434s6.475-3.117,15.248-9.434c49.635-35.736,49.635-109.964,0-145.699  c-5.501-3.96-10.098-6.663-12.762-8.128C255.994,2.386,254.124,2.386,252.572,3.24z" fill="#b0e046"/><path d="M270.313,157.07c-8.773,6.315-15.253,9.431-15.253,9.431s-4.371-2.109-10.8-6.356  c1.399-0.925,2.89-1.944,4.454-3.075c49.627-35.742,49.627-109.962,0-145.704c-1.564-1.132-3.054-2.149-4.454-3.075  c3.51-2.319,6.406-4,8.312-5.049c1.543-0.848,3.408-0.862,4.95-0.015c2.662,1.462,7.272,4.168,12.79,8.14  C319.94,47.107,319.94,121.327,270.313,157.07z" fill="#a4c93d"/><path d="M396.029,148.343c-2.978-0.614-8.229-1.542-14.984-2.099c-60.954-5.03-109.132,51.439-94.566,110.84  c2.574,10.5,5.477,17.074,5.477,17.074s6.949,1.831,17.723,2.72c60.954,5.03,109.132-51.439,94.566-110.84  c-1.614-6.583-3.358-11.622-4.433-14.467C399.185,149.913,397.763,148.7,396.029,148.343z" fill="#43a838"/><path d="M309.681,276.882c-10.773-0.89-17.725-2.725-17.725-2.725s-1.957-4.441-4.09-11.846  c1.665,0.203,3.461,0.397,5.384,0.551c60.953,5.02,109.124-51.443,94.569-110.844c-0.455-1.875-0.928-3.618-1.392-5.23  c4.175,0.513,7.469,1.115,9.6,1.554c1.724,0.355,3.152,1.556,3.776,3.201c1.077,2.84,2.827,7.892,4.447,14.494  C418.806,225.439,370.634,281.902,309.681,276.882z" fill="#338727"/><path d="M115.73,148.343c2.978-0.614,8.229-1.542,14.984-2.099c60.954-5.03,109.132,51.439,94.566,110.84  c-2.574,10.5-5.477,17.074-5.477,17.074s-6.949,1.831-17.723,2.72c-60.954,5.03-109.132-51.439-94.566-110.84  c1.614-6.583,3.358-11.622,4.433-14.467C112.574,149.913,113.995,148.7,115.73,148.343z" fill="#43a838"/><g><path d="M202.078,276.882c10.773-0.89,17.725-2.725,17.725-2.725s1.957-4.441,4.09-11.846   c-1.665,0.203-3.461,0.397-5.385,0.551c-60.953,5.02-109.124-51.443-94.569-110.844c0.455-1.875,0.928-3.618,1.392-5.23   c-4.175,0.513-7.47,1.115-9.601,1.554c-1.724,0.355-3.152,1.556-3.776,3.201c-1.076,2.84-2.827,7.892-4.447,14.494   C92.954,225.439,141.125,281.902,202.078,276.882z" fill="#338727"/><path d="M257.113,320.058c-1.725,0-3.459-0.591-4.872-1.8c-3.149-2.692-3.521-7.428-0.827-10.579   l54.513-63.77c2.693-3.149,7.429-3.521,10.579-0.827c3.149,2.692,3.521,7.428,0.827,10.579l-54.513,63.77   C261.336,319.167,259.231,320.058,257.113,320.058z" fill="#338727"/><path d="M254.108,320.058c-2.118,0-4.223-0.891-5.707-2.627l-54.513-63.77   c-2.693-3.15-2.322-7.887,0.827-10.579c3.15-2.693,7.887-2.322,10.579,0.827l54.513,63.77c2.693,3.15,2.322,7.887-0.827,10.579   C257.567,319.466,255.833,320.058,254.108,320.058z" fill="#338727"/><path d="M255.06,372.897c-4.144,0-7.504-3.36-7.504-7.504V108.902c0-4.144,3.36-7.504,7.504-7.504   s7.504,3.36,7.504,7.504v256.491C262.563,369.537,259.203,372.897,255.06,372.897z" fill="#338727"/></g></g><g transform="matrix(0.1745617389678955 0 0 0.1745617389678955 -23.68780517578125 111.31219482421875)" id="L1_97"><g><path d="M144.595,512c-0.731,0-1.474-0.107-2.208-0.334c-3.959-1.218-6.181-5.415-4.962-9.374l7.354-23.895   c1.218-3.959,5.417-6.183,9.374-4.962c3.959,1.218,6.181,5.415,4.962,9.374l-7.354,23.895C150.769,509.928,147.801,512,144.595,512   z M159.303,464.212c-0.731,0-1.474-0.107-2.208-0.334c-3.959-1.219-6.181-5.415-4.962-9.374l7.354-23.894   c1.219-3.958,5.417-6.181,9.374-4.962c3.959,1.218,6.181,5.415,4.962,9.374l-7.354,23.894   C165.477,462.14,162.509,464.212,159.303,464.212z M174.012,416.424c-0.731,0-1.474-0.107-2.208-0.334   c-3.959-1.219-6.181-5.415-4.962-9.374l7.354-23.894c1.219-3.959,5.416-6.184,9.374-4.962c3.959,1.219,6.181,5.415,4.962,9.374   l-7.354,23.894C180.185,414.352,177.217,416.424,174.012,416.424z" fill="#b9e5fa"/><path d="M175.695,512c-0.731,0-1.474-0.107-2.208-0.334c-3.959-1.218-6.181-5.415-4.962-9.374l7.354-23.895   c1.218-3.959,5.415-6.183,9.374-4.962c3.959,1.218,6.181,5.415,4.962,9.374l-7.354,23.895C181.868,509.928,178.9,512,175.695,512z    M190.403,464.212c-0.731,0-1.474-0.107-2.208-0.334c-3.959-1.219-6.181-5.415-4.962-9.374l7.354-23.894   c1.218-3.958,5.417-6.181,9.374-4.962c3.959,1.218,6.181,5.415,4.962,9.374l-7.354,23.894   C196.576,462.14,193.608,464.212,190.403,464.212z M205.111,416.424c-0.731,0-1.474-0.107-2.208-0.334   c-3.959-1.219-6.181-5.415-4.962-9.374l7.354-23.894c1.219-3.959,5.416-6.184,9.374-4.962c3.959,1.219,6.181,5.415,4.962,9.374   l-7.354,23.894C211.285,414.352,208.317,416.424,205.111,416.424z" fill="#b9e5fa"/><path d="M206.794,512c-0.731,0-1.474-0.107-2.208-0.334c-3.959-1.219-6.181-5.415-4.962-9.374l7.354-23.895   c1.219-3.959,5.416-6.183,9.374-4.962c3.959,1.219,6.181,5.415,4.962,9.374l-7.354,23.895C212.967,509.928,210,512,206.794,512z    M221.502,464.212c-0.731,0-1.474-0.107-2.208-0.334c-3.959-1.219-6.181-5.415-4.962-9.374l7.354-23.894   c1.218-3.958,5.416-6.181,9.374-4.962c3.959,1.218,6.181,5.415,4.962,9.374l-7.354,23.894   C227.676,462.14,224.708,464.212,221.502,464.212z M236.21,416.424c-0.731,0-1.474-0.107-2.208-0.334   c-3.959-1.219-6.181-5.415-4.962-9.374l7.354-23.894c1.218-3.959,5.417-6.184,9.374-4.962c3.959,1.219,6.181,5.415,4.962,9.374   l-7.354,23.894C242.384,414.352,239.416,416.424,236.21,416.424z" fill="#b9e5fa"/><path d="M237.894,512c-0.731,0-1.474-0.107-2.208-0.334c-3.959-1.219-6.181-5.415-4.962-9.374l7.354-23.895   c1.218-3.959,5.417-6.183,9.374-4.962c3.959,1.219,6.181,5.415,4.962,9.374l-7.354,23.895C244.067,509.928,241.099,512,237.894,512   z M252.602,464.212c-0.731,0-1.474-0.107-2.208-0.334c-3.959-1.219-6.181-5.415-4.962-9.374l7.354-23.894   c1.219-3.958,5.416-6.181,9.374-4.962c3.959,1.218,6.181,5.415,4.962,9.374l-7.354,23.894   C258.775,462.14,255.808,464.212,252.602,464.212z M267.31,416.424c-0.731,0-1.474-0.107-2.208-0.334   c-3.959-1.219-6.181-5.415-4.962-9.374l7.354-23.894c1.218-3.959,5.416-6.184,9.374-4.962c3.959,1.219,6.181,5.415,4.962,9.374   l-7.354,23.894C273.483,414.352,270.516,416.424,267.31,416.424z" fill="#b9e5fa"/><path d="M268.993,512c-0.731,0-1.474-0.107-2.208-0.334c-3.959-1.219-6.181-5.415-4.962-9.374l7.354-23.895   c1.218-3.959,5.417-6.183,9.374-4.962c3.959,1.219,6.181,5.415,4.962,9.374l-7.354,23.895C275.167,509.928,272.199,512,268.993,512   z M283.702,464.212c-0.731,0-1.474-0.107-2.208-0.334c-3.959-1.219-6.181-5.415-4.962-9.374l7.354-23.894   c1.218-3.958,5.417-6.181,9.374-4.962c3.959,1.218,6.181,5.415,4.962,9.374l-7.354,23.894   C289.875,462.14,286.907,464.212,283.702,464.212z M298.41,416.424c-0.731,0-1.474-0.107-2.208-0.334   c-3.959-1.219-6.181-5.415-4.962-9.374l7.354-23.894c1.219-3.959,5.417-6.184,9.374-4.962c3.959,1.219,6.181,5.415,4.962,9.374   l-7.354,23.894C304.583,414.352,301.615,416.424,298.41,416.424z" fill="#b9e5fa"/><path d="M300.093,512c-0.731,0-1.474-0.107-2.208-0.334c-3.959-1.219-6.181-5.415-4.962-9.374l7.354-23.895   c1.219-3.959,5.416-6.183,9.374-4.962c3.959,1.219,6.181,5.415,4.962,9.374l-7.354,23.895C306.266,509.928,303.298,512,300.093,512   z M314.801,464.212c-0.731,0-1.474-0.107-2.208-0.334c-3.959-1.219-6.181-5.415-4.962-9.374l7.354-23.894   c1.218-3.958,5.417-6.181,9.374-4.962c3.959,1.218,6.181,5.415,4.962,9.374l-7.354,23.894   C320.975,462.14,318.007,464.212,314.801,464.212z M329.509,416.424c-0.731,0-1.474-0.107-2.208-0.334   c-3.959-1.219-6.181-5.415-4.962-9.374l7.354-23.894c1.218-3.959,5.417-6.184,9.374-4.962c3.959,1.219,6.181,5.415,4.962,9.374   l-7.354,23.894C335.683,414.352,332.715,416.424,329.509,416.424z" fill="#b9e5fa"/><path d="M331.192,512c-0.731,0-1.474-0.107-2.208-0.334c-3.959-1.219-6.181-5.415-4.962-9.374l7.354-23.895   c1.219-3.959,5.417-6.183,9.374-4.962c3.959,1.219,6.181,5.415,4.962,9.374l-7.354,23.895C337.366,509.928,334.398,512,331.192,512   z M345.901,464.212c-0.731,0-1.474-0.107-2.208-0.334c-3.959-1.219-6.181-5.415-4.962-9.374l7.354-23.894   c1.219-3.958,5.416-6.181,9.374-4.962c3.959,1.218,6.181,5.415,4.962,9.374l-7.354,23.894   C352.074,462.14,349.106,464.212,345.901,464.212z M360.609,416.424c-0.731,0-1.474-0.107-2.208-0.334   c-3.959-1.219-6.181-5.415-4.962-9.374l7.354-23.894c1.218-3.959,5.415-6.184,9.374-4.962c3.959,1.219,6.181,5.415,4.962,9.374   l-7.354,23.894C366.782,414.352,363.814,416.424,360.609,416.424z" fill="#b9e5fa"/></g><path d="M511.928,196.491c-0.666-47.825-39.542-86.931-87.362-87.866  c-17.861-0.349-34.551,4.559-48.635,13.278c-2.707,1.676-6.249,0.139-6.79-2.999C357.492,51.373,298.639,0,227.781,0  C161.708,0,106.076,44.672,89.419,105.458c-0.508,1.853-2.17,3.156-4.09,3.239c-47.733,2.047-85.743,41.619-85.266,89.966  c0.484,49.069,41.189,88.255,90.26,88.255h39.617c-2.33,5.862-3.587,12.267-3.521,18.975c0.272,27.547,23.123,49.545,50.671,49.545  h186.638c27.88,0,50.435-22.795,50.046-50.764c-0.087-6.256-1.352-12.241-3.561-17.756h12.569  C472.444,286.918,512.622,246.313,511.928,196.491z" fill="#e2e2e2"/><g><path d="M413.765,304.131c0.409,16.649-7.317,31.517-19.484,40.905c1.44-4.665,2.212-9.617,2.212-14.754   c0-27.647-22.409-50.051-50.051-50.051c-9.67,0-18.699,2.742-26.35,7.491c-1.498,0.93-3.464,0.021-3.764-1.716   c-6.54-37.911-39.581-66.747-79.359-66.747c-21.938,0-41.829,8.774-56.352,23.011c12.517-28.219,40.78-47.904,73.639-47.904   c39.779,0,72.816,28.842,79.359,66.75c0.304,1.761,2.293,2.624,3.812,1.683c7.901-4.891,17.267-7.645,27.289-7.452   C391.359,255.861,413.112,277.491,413.765,304.131z" fill="#cccccc"/><path d="M511.914,195.525c0.728,29.657-13.035,56.142-34.707,72.864c2.565-8.311,3.941-17.131,3.941-26.281   c0-49.247-39.918-89.156-89.156-89.156c-17.226,0-33.309,4.885-46.938,13.344c-2.668,1.656-6.171,0.037-6.705-3.057   C326.7,95.707,267.843,44.341,196.987,44.341c-39.078,0-74.51,15.629-100.38,40.99C118.903,35.066,169.249,0,227.781,0   c70.858,0,129.708,51.377,141.362,118.902c0.542,3.137,4.084,4.674,6.791,2.998c14.074-8.713,30.757-13.617,48.609-13.274   C472.002,109.541,510.749,148.071,511.914,195.525z" fill="#cccccc"/><circle cx="174" cy="300" r="8" fill="#cccccc"/><circle cx="201" cy="325" r="8" fill="#cccccc"/><circle cx="291" cy="269" r="8" fill="#cccccc"/></g></g><g transform="matrix(0.17125241631553004 0.016572814648841444 -0.016572814648841444 0.17125241631553004 191.40202197332772 81.9167408731209)"><g><path d="M256,78.785c-4.157,0-7.528-3.37-7.528-7.528V7.528C248.473,3.37,251.843,0,256,0   c4.157,0,7.528,3.37,7.528,7.528v63.729C263.528,75.414,260.158,78.785,256,78.785z" fill="#f4a240"/><path d="M256,512c-4.157,0-7.528-3.37-7.528-7.528v-63.729c0-4.157,3.37-7.528,7.528-7.528   c4.157,0,7.528,3.37,7.528,7.528v63.729C263.528,508.63,260.158,512,256,512z" fill="#f4a240"/><path d="M163.636,103.537c-2.602,0-5.132-1.35-6.526-3.765l-31.865-55.191   c-2.079-3.6-0.845-8.204,2.755-10.283c3.601-2.08,8.204-0.846,10.283,2.755l31.865,55.191c2.079,3.6,0.845,8.204-2.755,10.283   C166.207,103.212,164.912,103.537,163.636,103.537z" fill="#f4a240"/><path d="M380.243,478.713c-2.602,0-5.132-1.35-6.526-3.765l-31.865-55.191   c-2.079-3.6-0.845-8.204,2.755-10.283c3.6-2.08,8.204-0.846,10.283,2.755l31.865,55.191c2.079,3.6,0.845,8.204-2.755,10.283   C382.814,478.388,381.521,478.713,380.243,478.713z" fill="#f4a240"/><path d="M96,171.157c-1.277,0-2.571-0.325-3.757-1.01l-55.191-31.865c-3.6-2.079-4.834-6.683-2.755-10.283   c2.078-3.6,6.682-4.834,10.283-2.755l55.191,31.865c3.6,2.079,4.834,6.683,2.755,10.283C101.132,169.807,98.602,171.157,96,171.157   z" fill="#f4a240"/><path d="M471.176,387.766c-1.277,0-2.572-0.325-3.757-1.01l-55.191-31.865   c-3.6-2.079-4.834-6.683-2.755-10.283c2.078-3.6,6.682-4.835,10.283-2.755l55.191,31.865c3.6,2.079,4.834,6.683,2.755,10.283   C476.308,386.415,473.778,387.766,471.176,387.766z" fill="#f4a240"/><path d="M71.257,263.528H7.528C3.37,263.528,0,260.158,0,256c0-4.157,3.37-7.528,7.528-7.528h63.729   c4.157,0,7.528,3.37,7.528,7.528C78.785,260.158,75.414,263.528,71.257,263.528z" fill="#f4a240"/><path d="M504.472,263.528h-63.729c-4.157,0-7.528-3.37-7.528-7.528c0-4.157,3.37-7.528,7.528-7.528h63.729   c4.157,0,7.528,3.37,7.528,7.528C512,260.158,508.63,263.528,504.472,263.528z" fill="#f4a240"/><path d="M40.824,387.766c-2.602,0-5.132-1.35-6.526-3.765c-2.079-3.6-0.845-8.204,2.755-10.283   l55.191-31.865c3.6-2.079,8.204-0.845,10.283,2.755s0.845,8.204-2.755,10.283L44.58,386.756   C43.395,387.44,42.1,387.766,40.824,387.766z" fill="#f4a240"/><path d="M416,171.157c-2.602,0-5.132-1.35-6.526-3.765c-2.079-3.6-0.845-8.204,2.755-10.283l55.191-31.865   c3.6-2.079,8.204-0.846,10.283,2.755c2.079,3.6,0.845,8.204-2.755,10.283l-55.191,31.865   C418.571,170.832,417.277,171.157,416,171.157z" fill="#f4a240"/><path d="M131.757,478.713c-1.277,0-2.571-0.325-3.757-1.01c-3.6-2.079-4.834-6.683-2.755-10.283   l31.865-55.191c2.078-3.6,6.682-4.835,10.283-2.755c3.6,2.079,4.834,6.683,2.755,10.283l-31.865,55.191   C136.889,477.362,134.359,478.713,131.757,478.713z" fill="#f4a240"/><path d="M348.365,103.537c-1.277,0-2.572-0.325-3.757-1.01c-3.6-2.079-4.834-6.683-2.755-10.283   l31.865-55.191c2.079-3.6,6.682-4.835,10.283-2.755c3.6,2.079,4.834,6.683,2.755,10.283l-31.865,55.191   C353.496,102.186,350.966,103.537,348.365,103.537z" fill="#f4a240"/></g><circle cx="256" cy="256" r="125" fill="#f8c442"/><g><path d="M381.105,256c0,69.098-56.007,125.106-125.106,125.106c-7.037,0-13.94-0.581-20.664-1.709   c59.269-9.841,104.44-61.335,104.44-123.396s-45.172-113.555-104.44-123.396c6.725-1.128,13.627-1.709,20.664-1.709   C325.098,130.895,381.105,186.902,381.105,256z" fill="#f4a240"/><circle cx="186" cy="309" r="8" fill="#f4a240"/><circle cx="211" cy="333" r="8" fill="#f4a240"/><circle cx="299" cy="192" r="8" fill="#f4a240"/></g></g></defs><g fi:class="KUsePattern"><pattern id="pattern_L1_1" width="350" height="350" patternUnits="userSpaceOnUse"><use xlink:href="#L1_1" x="-350" y="-350"/><use xlink:href="#L1_1" x="0" y="-350"/><use xlink:href="#L1_1" x="350" y="-350"/><use xlink:href="#L1_1" x="-350" y="0"/><use xlink:href="#L1_1" x="0" y="0"/><use xlink:href="#L1_1" x="350" y="0"/><use xlink:href="#L1_1" x="-350" y="350"/><use xlink:href="#L1_1" x="0" y="350"/><use xlink:href="#L1_1" x="350" y="350"/></pattern><rect x="0" y="0" width="100%" height="100%" fill="url(#pattern_L1_1)"/></g><g fi:class="KUsePattern"><pattern id="pattern_L1_3" width="350" height="350" patternUnits="userSpaceOnUse"><use xlink:href="#L1_3" x="-350" y="-350"/><use xlink:href="#L1_3" x="0" y="-350"/><use xlink:href="#L1_3" x="350" y="-350"/><use xlink:href="#L1_3" x="-350" y="0"/><use xlink:href="#L1_3" x="0" y="0"/><use xlink:href="#L1_3" x="350" y="0"/><use xlink:href="#L1_3" x="-350" y="350"/><use xlink:href="#L1_3" x="0" y="350"/><use xlink:href="#L1_3" x="350" y="350"/></pattern><rect x="0" y="0" width="100%" height="100%" fill="url(#pattern_L1_3)"/></g><g fi:class="KUsePattern"><pattern id="pattern_L1_88" width="350" height="350" patternUnits="userSpaceOnUse"><use xlink:href="#L1_88" x="-350" y="-350"/><use xlink:href="#L1_88" x="0" y="-350"/><use xlink:href="#L1_88" x="350" y="-350"/><use xlink:href="#L1_88" x="-350" y="0"/><use xlink:href="#L1_88" x="0" y="0"/><use xlink:href="#L1_88" x="350" y="0"/><use xlink:href="#L1_88" x="-350" y="350"/><use xlink:href="#L1_88" x="0" y="350"/><use xlink:href="#L1_88" x="350" y="350"/></pattern><rect x="0" y="0" width="100%" height="100%" fill="url(#pattern_L1_88)"/></g><g fi:class="KUsePattern"><pattern id="pattern_L1_89" width="350" height="350" patternUnits="userSpaceOnUse"><use xlink:href="#L1_89" x="-350" y="-350"/><use xlink:href="#L1_89" x="0" y="-350"/><use xlink:href="#L1_89" x="350" y="-350"/><use xlink:href="#L1_89" x="-350" y="0"/><use xlink:href="#L1_89" x="0" y="0"/><use xlink:href="#L1_89" x="350" y="0"/><use xlink:href="#L1_89" x="-350" y="350"/><use xlink:href="#L1_89" x="0" y="350"/><use xlink:href="#L1_89" x="350" y="350"/></pattern><rect x="0" y="0" width="100%" height="100%" fill="url(#pattern_L1_89)"/></g><g fi:class="KUsePattern"><pattern id="pattern_L1_94" width="350" height="350" patternUnits="userSpaceOnUse"><use xlink:href="#L1_94" x="-350" y="-350"/><use xlink:href="#L1_94" x="0" y="-350"/><use xlink:href="#L1_94" x="350" y="-350"/><use xlink:href="#L1_94" x="-350" y="0"/><use xlink:href="#L1_94" x="0" y="0"/><use xlink:href="#L1_94" x="350" y="0"/><use xlink:href="#L1_94" x="-350" y="350"/><use xlink:href="#L1_94" x="0" y="350"/><use xlink:href="#L1_94" x="350" y="350"/></pattern><rect x="0" y="0" width="100%" height="100%" fill="url(#pattern_L1_94)"/></g><g fi:class="KUsePattern"><pattern id="pattern_L1_95" width="350" height="350" patternUnits="userSpaceOnUse"><use xlink:href="#L1_95" x="-350" y="-350"/><use xlink:href="#L1_95" x="0" y="-350"/><use xlink:href="#L1_95" x="350" y="-350"/><use xlink:href="#L1_95" x="-350" y="0"/><use xlink:href="#L1_95" x="0" y="0"/><use xlink:href="#L1_95" x="350" y="0"/><use xlink:href="#L1_95" x="-350" y="350"/><use xlink:href="#L1_95" x="0" y="350"/><use xlink:href="#L1_95" x="350" y="350"/></pattern><rect x="0" y="0" width="100%" height="100%" fill="url(#pattern_L1_95)"/></g><g fi:class="KUsePattern"><pattern id="pattern_L1_97" width="350" height="350" patternUnits="userSpaceOnUse"><use xlink:href="#L1_97" x="-350" y="-350"/><use xlink:href="#L1_97" x="0" y="-350"/><use xlink:href="#L1_97" x="350" y="-350"/><use xlink:href="#L1_97" x="-350" y="0"/><use xlink:href="#L1_97" x="0" y="0"/><use xlink:href="#L1_97" x="350" y="0"/><use xlink:href="#L1_97" x="-350" y="350"/><use xlink:href="#L1_97" x="0" y="350"/><use xlink:href="#L1_97" x="350" y="350"/></pattern><rect x="0" y="0" width="100%" height="100%" fill="url(#pattern_L1_97)"/></g><g fi:class="KUsePattern" transform="matrix(1 0 0 1 20 20)"><pattern id="pattern_UNKNOWN" width="350" height="350" patternUnits="userSpaceOnUse"><use xlink:href="#UNKNOWN" x="-350" y="-350"/><use xlink:href="#UNKNOWN" x="0" y="-350"/><use xlink:href="#UNKNOWN" x="350" y="-350"/><use xlink:href="#UNKNOWN" x="-350" y="0"/><use xlink:href="#UNKNOWN" x="0" y="0"/><use xlink:href="#UNKNOWN" x="350" y="0"/><use xlink:href="#UNKNOWN" x="-350" y="350"/><use xlink:href="#UNKNOWN" x="0" y="350"/><use xlink:href="#UNKNOWN" x="350" y="350"/></pattern><rect x="0" y="0" width="100%" height="100%" fill="url(#pattern_UNKNOWN)"/></g></svg>